<?xml version="1.0" standalone="no"?>
<!DOCTYPE svg PUBLIC "-//W3C//DTD SVG 20010904//EN"
 "http://www.w3.org/TR/2001/REC-SVG-20010904/DTD/svg10.dtd">
<svg version="1.0" xmlns="http://www.w3.org/2000/svg"
 width="100.000000pt" height="100.000000pt" viewBox="0 0 100.000000 100.000000"
 preserveAspectRatio="xMidYMid meet">

<g transform="translate(0.000000,100.000000) scale(0.100000,-0.100000)"
fill="#000000" stroke="none">
<path d="M267 894 c-4 -4 -7 -21 -7 -39 0 -25 -8 -37 -43 -62 -29 -20 -53 -49
-70 -84 l-27 -53 0 -249 0 -249 29 -29 29 -29 335 0 c316 0 335 1 351 19 16
17 17 42 14 238 l-3 218 -39 75 c-24 46 -42 95 -45 125 l-6 50 -85 0 -85 0 -3
-32 -3 -32 -42 30 c-33 24 -43 38 -47 67 l-5 37 -121 3 c-66 1 -123 -1 -127
-4z m213 -49 c0 -12 -17 -15 -90 -15 -73 0 -90 3 -90 15 0 12 17 15 90 15 73
0 90 -3 90 -15z m60 -80 c42 -29 74 -83 84 -139 7 -35 6 -38 -11 -32 -43 18
-123 18 -172 2 -47 -15 -55 -15 -102 0 -48 16 -118 15 -161 -1 -15 -6 -18 -2
-18 25 0 45 26 94 71 135 l39 35 117 0 c109 0 120 -2 153 -25z m210 5 c0 -17
-7 -20 -50 -20 -43 0 -50 3 -50 20 0 17 7 20 50 20 43 0 50 -3 50 -20z m50
-132 c28 -57 40 -95 40 -126 0 -36 -3 -43 -16 -38 -9 3 -26 6 -39 6 -21 0 -24
5 -27 43 -3 42 -3 42 -48 47 -45 5 -45 5 -51 50 -3 25 -9 57 -13 73 l-8 27 61
0 62 0 39 -82z m-421 -100 c47 -23 85 -33 129 -36 73 -5 77 -14 37 -88 -22
-42 -25 -59 -25 -160 l0 -114 -168 0 c-117 0 -172 4 -180 12 -9 9 -12 68 -12
204 l0 192 28 10 c56 21 122 14 191 -20z m191 17 c0 -11 -12 -15 -49 -15 -27
0 -57 3 -66 6 -29 11 4 24 63 24 40 0 52 -4 52 -15z m150 -35 c0 -18 -7 -20
-55 -20 -48 0 -55 2 -55 20 0 18 7 20 55 20 48 0 55 -2 55 -20z m22 -115 l27
-55 -47 -2 c-54 -1 -156 3 -160 7 -2 2 9 26 23 54 l27 51 52 0 51 0 27 -55z
m82 29 c23 -9 24 -294 1 -294 -12 0 -15 19 -15 108 0 88 -4 115 -20 147 -11
22 -20 41 -20 42 0 5 38 3 54 -3z m-70 -120 c13 -5 16 -23 16 -90 l0 -84 -105
0 -105 0 0 73 0 73 33 -3 c17 -2 50 5 72 16 43 21 64 24 89 15z"/>
</g>
</svg>
