<?xml version="1.0" standalone="no"?>
<!DOCTYPE svg PUBLIC "-//W3C//DTD SVG 20010904//EN"
 "http://www.w3.org/TR/2001/REC-SVG-20010904/DTD/svg10.dtd">
<svg version="1.0" xmlns="http://www.w3.org/2000/svg"
 width="100.000000pt" height="70.000000pt" viewBox="0 0 100.000000 70.000000"
 preserveAspectRatio="xMidYMid meet">

<g transform="translate(0.000000,70.000000) scale(0.100000,-0.100000)"
fill="#000000" stroke="none">
<path  d="M596 641 c-30 -32 -30 -55 0 -30 16 13 17 10 11 -34 -22 -158 -155
-288 -327 -319 -42 -7 -58 -14 -51 -21 14 -14 114 7 181 40 110 54 203 180
217 294 5 46 7 49 23 34 30 -27 31 0 2 34 l-27 32 -29 -30z"/>
<path fill="#2191BE"  d="M670 285 l0 -265 50 0 50 0 0 265 0 265 -50 0 -50 0 0 -265z"/>
<path d="M520 160 l0 -141 53 3 52 3 0 135 0 135 -52 3 -53 3 0 -141z"/>
<path d="M370 114 l0 -95 53 3 52 3 3 93 3 92 -56 0 -55 0 0 -96z"/>
<path d="M224 137 c-3 -8 -4 -36 -2 -63 l3 -49 53 -3 53 -3 -3 63 -3 63 -48 3
c-34 2 -49 -1 -53 -11z"/>
</g>
</svg>
